<?xml version="1.0" standalone="no"?>
<!DOCTYPE svg PUBLIC "-//W3C//DTD SVG 20010904//EN"
 "http://www.w3.org/TR/2001/REC-SVG-20010904/DTD/svg10.dtd">
<svg version="1.0" xmlns="http://www.w3.org/2000/svg"
 width="378.000000pt" height="378.000000pt" viewBox="0 0 378.000000 378.000000"
 preserveAspectRatio="xMidYMid meet">
<metadata>
Created by potrace 1.14, written by Peter Selinger 2001-2017
</metadata>
<g transform="translate(0.000000,378.000000) scale(0.100000,-0.100000)"
fill="#000000" stroke="none">
<path d="M1739 3776 c-2 -2 -31 -6 -64 -10 -117 -12 -261 -44 -380 -83 -27
-10 -52 -18 -55 -18 -3 -1 -18 -7 -33 -13 -16 -7 -30 -12 -33 -12 -6 0 -190
-91 -224 -111 -14 -8 -28 -18 -32 -24 -4 -5 -8 -7 -8 -2 0 8 -101 -61 -112
-77 -4 -6 -8 -7 -8 -3 0 27 -271 -224 -360 -333 -25 -30 -48 -56 -52 -58 -5
-2 -8 -8 -8 -13 0 -6 -16 -31 -35 -57 -19 -26 -38 -52 -42 -58 -5 -5 -16 -26
-26 -45 -42 -76 -52 -94 -62 -101 -5 -4 -7 -8 -2 -8 4 0 1 -10 -7 -22 -15 -24
-77 -172 -101 -243 -100 -292 -120 -699 -50 -995 3 -14 8 -34 10 -45 11 -50
15 -64 34 -120 34 -103 51 -146 92 -230 21 -45 39 -87 39 -93 0 -7 4 -12 9
-12 5 0 12 -9 16 -19 6 -20 124 -200 147 -226 7 -7 27 -30 43 -51 172 -214
454 -423 716 -532 109 -45 262 -94 334 -107 11 -2 43 -8 72 -14 168 -33 494
-36 643 -6 14 3 41 8 60 11 19 3 60 12 90 20 30 8 65 17 77 20 94 19 443 174
443 196 0 4 5 8 11 8 6 0 50 27 97 60 333 229 587 568 717 955 26 79 66 242
73 303 16 128 7 587 -12 642 -3 8 -7 29 -10 45 -7 42 -18 86 -29 115 -3 8 -8
27 -11 42 -3 15 -11 40 -18 55 -6 15 -12 33 -14 38 -9 33 -67 162 -104 230
-54 102 -170 275 -183 275 -6 0 -8 3 -5 6 7 6 -50 71 -157 179 -129 130 -299
252 -470 338 -114 57 -160 78 -177 81 -7 2 -26 8 -41 15 -32 12 -191 59 -228
66 -13 3 -50 9 -81 15 -32 6 -70 13 -85 16 -31 6 -398 15 -404 10z"/>
</g>
</svg>
